<svg id="Layer_1" data-name="Layer 1" xmlns="http://www.w3.org/2000/svg" viewBox="0 0 458.81 56"><defs><style>.cls-1{fill:#ff9500;}</style></defs><title>logo</title><path class="cls-1" d="M43.33,15.19a24.65,24.65,0,0,0-7.81-5.87,21.82,21.82,0,0,0-9.16-1.9,20.58,20.58,0,0,0-14.57,6.21A20.49,20.49,0,0,0,7.4,20.4a22.71,22.71,0,0,0-1.46,8.28,23.43,23.43,0,0,0,.87,6.55,18.86,18.86,0,0,0,2.61,5.51A21.19,21.19,0,0,0,17,47.44a20.46,20.46,0,0,0,9.67,2.36,20.66,20.66,0,0,0,9.06-2,23.76,23.76,0,0,0,7.63-6v8a29.08,29.08,0,0,1-17.21,5.57,26.19,26.19,0,0,1-7.88-1.2,26.71,26.71,0,0,1-7.18-3.5,26.29,26.29,0,0,1-8.52-9.51A26.48,26.48,0,0,1-.4,28.75,28,28,0,0,1,1.57,18a25.69,25.69,0,0,1,6-8.76,26.13,26.13,0,0,1,8.64-5.63A28.09,28.09,0,0,1,26.57,1.78a27.48,27.48,0,0,1,8.57,1.34,30.75,30.75,0,0,1,8.19,4.16Z" transform="translate(0.4)"/><path class="cls-1" d="M53.19,54V22.13H58v6.62a17,17,0,0,1,4.67-5.93,10.06,10.06,0,0,1,6-1.77,10.63,10.63,0,0,1,1.89.16,12.32,12.32,0,0,1,1.81.46l-1.81,4.92a12.77,12.77,0,0,0-1.78-.47,8.26,8.26,0,0,0-1.6-.16,7.38,7.38,0,0,0-6.49,3.12q-2.16,3.12-2.16,9.39V54Z" transform="translate(0.4)"/><path class="cls-1" d="M75.6,38.16a17.19,17.19,0,0,1,1.29-6.64A16.74,16.74,0,0,1,80.65,26a17.2,17.2,0,0,1,5.61-3.71A17.58,17.58,0,0,1,93,21a17.12,17.12,0,0,1,6.61,1.29A17.89,17.89,0,0,1,105.22,26,16.32,16.32,0,0,1,109,31.56a17.07,17.07,0,0,1,1.29,6.6A16.88,16.88,0,0,1,109,44.73a16.56,16.56,0,0,1-3.76,5.49,18,18,0,0,1-5.7,3.83A16.83,16.83,0,0,1,93,55.37a17.27,17.27,0,0,1-6.67-1.3,17.4,17.4,0,0,1-9.39-9.33A16.79,16.79,0,0,1,75.6,38.16Zm5.78,0a11.85,11.85,0,0,0,3.38,8.55A11,11,0,0,0,93,50.22a10.79,10.79,0,0,0,8.12-3.51,11.9,11.9,0,0,0,3.35-8.55,11.94,11.94,0,0,0-3.35-8.56A10.82,10.82,0,0,0,93,26.1a10.94,10.94,0,0,0-8.2,3.5A11.88,11.88,0,0,0,81.38,38.16Z" transform="translate(0.4)"/><path class="cls-1" d="M138.33,21l9.54,22.89,8.58-21.74h6.13L148.4,56,137.91,31.54,127.42,56,113.2,22.13h6.06l8.51,21.74L137.45,21Z" transform="translate(0.4)"/><path class="cls-1" d="M168.16,54V22.13h5.33V27a13.4,13.4,0,0,1,4.95-4.56,14.28,14.28,0,0,1,6.69-1.5q5.64,0,8.81,3c2.12,2,3.17,4.77,3.17,8.32V54h-5.57V35.23q0-4.84-2-7.2c-1.36-1.56-3.46-2.35-6.29-2.35a10.83,10.83,0,0,0-4.44.89,8.74,8.74,0,0,0-3.33,2.53A7.59,7.59,0,0,0,174,32a24.25,24.25,0,0,0-.43,5.57V54Z" transform="translate(0.4)"/><path class="cls-1" d="M236.39,38.89H211.12v.49a11.68,11.68,0,0,0,2.93,8.27,9.91,9.91,0,0,0,7.63,3.16,10.19,10.19,0,0,0,5.79-1.73A15,15,0,0,0,232,43.87l4.15,2.79a15.94,15.94,0,0,1-14.78,8.71,15.38,15.38,0,0,1-11.78-4.81q-4.49-4.8-4.49-12.61a17.29,17.29,0,0,1,4.46-12.27,15,15,0,0,1,11.46-4.77q7.08,0,11.21,4.53t4.13,12.37Zm-5.86-4.43a9.14,9.14,0,0,0-2.8-6.49,9.91,9.91,0,0,0-6.92-2.29,9.33,9.33,0,0,0-9.69,8.78Z" transform="translate(0.4)"/><path class="cls-1" d="M274.3,0V54H269V48.23a13.94,13.94,0,0,1-4.88,5.3,12.51,12.51,0,0,1-6.69,1.84,14.09,14.09,0,0,1-11.07-4.72q-4.2-4.73-4.2-12.49t4.11-12.51a13.86,13.86,0,0,1,11-4.67,12.24,12.24,0,0,1,11.64,7.14V0ZM269,38.23a12.24,12.24,0,0,0-3-8.59,10,10,0,0,0-7.8-3.26,9.79,9.79,0,0,0-7.57,3q-2.71,3-2.71,8.19c0,3.93.91,7,2.75,9.22a9.33,9.33,0,0,0,7.6,3.33,10.05,10.05,0,0,0,7.85-3.14Q269,43.81,269,38.23Z" transform="translate(0.4)"/><path class="cls-1" d="M294.9,54V8.78H280.47V3h34.92V8.78H301V54Z" transform="translate(0.4)"/><path class="cls-1" d="M319.53,22.13V37.81q0,6.87,2,9.6t6.89,2.74c3.22,0,5.51-.9,6.84-2.71s2-5,2-9.63V22.13h5.57V40.74q0,7.21-3.69,10.92t-10.87,3.71q-7.11,0-10.81-3.73t-3.69-10.9V22.13Z" transform="translate(0.4)"/><path class="cls-1" d="M354.28,26.62h-5.86V22.13h5.86V9.27h5.57V22.13h5.86v4.49h-5.86V54h-5.57Z" transform="translate(0.4)"/><path class="cls-1" d="M369.33,38.16a17.19,17.19,0,0,1,1.29-6.64A16.76,16.76,0,0,1,374.39,26,17.2,17.2,0,0,1,380,22.25,17.58,17.58,0,0,1,386.69,21a17.1,17.1,0,0,1,6.6,1.29A17.77,17.77,0,0,1,399,26a16.35,16.35,0,0,1,3.77,5.53,17.07,17.07,0,0,1,1.29,6.6,16.88,16.88,0,0,1-1.29,6.57A16.59,16.59,0,0,1,399,50.22a17.9,17.9,0,0,1-5.69,3.83,16.91,16.91,0,0,1-6.57,1.32,17.23,17.23,0,0,1-12.3-5,17.59,17.59,0,0,1-3.77-5.58A16.79,16.79,0,0,1,369.33,38.16Zm5.79,0a11.81,11.81,0,0,0,3.38,8.55,10.94,10.94,0,0,0,8.19,3.51,10.8,10.8,0,0,0,8.12-3.51,11.9,11.9,0,0,0,3.34-8.55,11.94,11.94,0,0,0-3.34-8.56,10.83,10.83,0,0,0-8.12-3.5,11,11,0,0,0-8.21,3.5A11.91,11.91,0,0,0,375.12,38.16Z" transform="translate(0.4)"/><path class="cls-1" d="M412.58,54V22.13h4.84v6.62a17.07,17.07,0,0,1,4.67-5.93,10.09,10.09,0,0,1,6-1.77,10.44,10.44,0,0,1,1.88.16,12.13,12.13,0,0,1,1.82.46L430,26.59a12.65,12.65,0,0,0-1.77-.47,8.36,8.36,0,0,0-1.61-.16,7.36,7.36,0,0,0-6.48,3.12Q418,32.2,418,38.47V54Z" transform="translate(0.4)"/><path class="cls-1" d="M434.18,48.65l4.67-3.14a9.64,9.64,0,0,0,3.35,3.82A8.76,8.76,0,0,0,447,50.6a6.69,6.69,0,0,0,4.34-1.33A4.22,4.22,0,0,0,453,45.79,3.76,3.76,0,0,0,451.83,43,10.38,10.38,0,0,0,448,41l-.91-.32q-11.64-4-11.64-10a8.71,8.71,0,0,1,3.14-6.94A12.1,12.1,0,0,1,446.7,21a14.36,14.36,0,0,1,7.1,1.65,9.56,9.56,0,0,1,4.26,4.69L453.63,30a7.42,7.42,0,0,0-2.88-3.38,8.12,8.12,0,0,0-4.4-1.19,5.66,5.66,0,0,0-3.92,1.35,4.36,4.36,0,0,0-1.52,3.43q0,2.93,6.34,4.91c.79.26,1.42.45,1.88.59q5.21,1.68,7.23,3.82a7.88,7.88,0,0,1,2,5.66,9.26,9.26,0,0,1-3.22,7.34,12.35,12.35,0,0,1-8.42,2.8,15.74,15.74,0,0,1-7.57-1.67A12.43,12.43,0,0,1,434.18,48.65Z" transform="translate(0.4)"/></svg>